<svg width="35" height="37" viewBox="0 0 35 37" fill="none" xmlns="http://www.w3.org/2000/svg">
<path fill-rule="evenodd" clip-rule="evenodd" d="M10.5329 0C11.6375 0 12.5329 0.89543 12.5329 2V3.24599H22.1857V2C22.1857 0.89543 23.0811 0 24.1857 0C25.2902 0 26.1857 0.89543 26.1857 2V3.24599H29.3054C32.1992 3.24599 34.7186 5.50123 34.7186 8.49197V14.9839V31.2139C34.7186 34.2046 32.1992 36.4599 29.3054 36.4599H5.41318C2.5194 36.4599 0 34.2046 0 31.2139V14.9839V8.49197C0 5.50123 2.5194 3.24599 5.41318 3.24599H8.53294V2C8.53294 0.89543 9.42837 0 10.5329 0ZM8.53294 7.24599H5.41318C4.53686 7.24599 4 7.8973 4 8.49197V12.9839H30.7186V8.49197C30.7186 7.8973 30.1817 7.24599 29.3054 7.24599H26.1857V8.49197C26.1857 9.59654 25.2902 10.492 24.1857 10.492C23.0811 10.492 22.1857 9.59654 22.1857 8.49197V7.24599H12.5329V8.49197C12.5329 9.59654 11.6375 10.492 10.5329 10.492C9.42837 10.492 8.53294 9.59654 8.53294 8.49197V7.24599ZM30.7186 16.9839H4V31.2139C4 31.8086 4.53686 32.4599 5.41318 32.4599H29.3054C30.1817 32.4599 30.7186 31.8086 30.7186 31.2139V16.9839Z" fill="#1E1E1E"/>
</svg>
