<?xml version="1.0" encoding="UTF-8"?>
<svg id="Layer_1" data-name="Layer 1" xmlns="http://www.w3.org/2000/svg" version="1.1" viewBox="0 0 35 37">
  <defs>
    <style>
      .cls-1 {
        fill: #1e1e1e;
        fill-rule: evenodd;
      }

      .cls-1, .cls-2, .cls-3 {
        stroke-width: 0px;
      }

      .cls-2 {
        fill: #624a1e;
      }

      .cls-3 {
        fill: #ffe8be;
      }
    </style>
  </defs>
  <rect class="cls-3" x="3.7" y="16.3" width="27.4" height="16.6"/>
  <rect class="cls-2" x="3.7" y="6.8" width="27.4" height="6.6"/>
  <path class="cls-1" d="M10.5,0c1.1,0,2,.9,2,2v1.2h9.7v-1.2c0-1.1.9-2,2-2s2,.9,2,2v1.2h3.1c2.9,0,5.4,2.3,5.4,5.2v22.7c0,3-2.5,5.2-5.4,5.2H5.4c-2.9,0-5.4-2.3-5.4-5.2V8.5C0,5.5,2.5,3.2,5.4,3.2h3.1v-1.2c0-1.1.9-2,2-2ZM8.5,7.2h-3.1c-.9,0-1.4.7-1.4,1.2v4.5h26.7v-4.5c0-.6-.5-1.2-1.4-1.2h-3.1v1.2c0,1.1-.9,2-2,2s-2-.9-2-2v-1.2h-9.7v1.2c0,1.1-.9,2-2,2s-2-.9-2-2v-1.2ZM30.7,17H4v14.2c0,.6.5,1.2,1.4,1.2h23.9c.9,0,1.4-.7,1.4-1.2v-14.2Z"/>
</svg>