<svg width="42" height="42" viewBox="0 0 42 42" fill="none" xmlns="http://www.w3.org/2000/svg">
<path d="M15.75 31.5V8.75L36.75 5.25V28M15.75 31.5C15.75 34.3995 13.3995 36.75 10.5 36.75C7.60051 36.75 5.25 34.3995 5.25 31.5C5.25 28.6005 7.60051 26.25 10.5 26.25C13.3995 26.25 15.75 28.6005 15.75 31.5ZM36.75 28C36.75 30.8995 34.3995 33.25 31.5 33.25C28.6005 33.25 26.25 30.8995 26.25 28C26.25 25.1005 28.6005 22.75 31.5 22.75C34.3995 22.75 36.75 25.1005 36.75 28Z" stroke="#1B0942" stroke-width="4" stroke-linecap="round" stroke-linejoin="round"/>
</svg>
