<?xml version="1.0" encoding="UTF-8"?>
<svg xmlns="http://www.w3.org/2000/svg" viewBox="0 0 34 34">
  <path d="M32,33.5c-.4,0-.8-.1-1.1-.4l-3-3c-1.1.7-2.5,1.2-4,1.2-4,0-7.3-3.3-7.3-7.3s3.3-7.3,7.3-7.3,7.3,3.3,7.3,7.3-.4,2.8-1.2,4l3,3c.6.6.6,1.5,0,2.1s-.7.4-1.1.4ZM23.9,19.7c-2.4,0-4.3,1.9-4.3,4.3s1.9,4.3,4.3,4.3,4.3-1.9,4.3-4.3-1.9-4.3-4.3-4.3ZM13.5,26.6H2c-.8,0-1.5-.7-1.5-1.5V2c0-.8.7-1.5,1.5-1.5h11.5c1.3,0,2.6.5,3.5,1.4.9-.9,2.1-1.4,3.5-1.4h11.5c.8,0,1.5.7,1.5,1.5v16.2c0,.8-.7,1.5-1.5,1.5s-1.5-.7-1.5-1.5V3.5h-10c-1.1,0-2,.9-2,2v10.4c0,.8-.7,1.5-1.5,1.5s-1.5-.7-1.5-1.5V5.5c0-1.1-.9-2-2-2H3.5v20.1h10c.8,0,1.5.7,1.5,1.5s-.7,1.5-1.5,1.5Z" fill="#1b0942" />
</svg>
