<?xml version="1.0" encoding="UTF-8"?>
<svg xmlns="http://www.w3.org/2000/svg" viewBox="0 0 34 34">
  <circle cx="16.9" cy="16.9" r="14.3" fill="#ff9750" />
  <path d="M16.9,33.7c-5,0-9.5-2.2-12.6-5.7,0,0-.2-.2-.2-.3C1.5,24.9,0,21,0,16.9s1.5-8,4-10.9c0,0,.1-.2.2-.3C7.4,2.2,11.9,0,16.9,0s9.5,2.2,12.6,5.7c0,0,.2.2.2.3,2.5,2.9,4,6.8,4,10.9s-1.5,8-4,10.9c0,0-.1.2-.2.3-3.1,3.5-7.6,5.7-12.6,5.7ZM18.9,4.2v25.4c2.3-.4,4.4-1.3,6.1-2.8-1.1-1-2-2.1-2.7-3.4-1.1-2-1.7-4.3-1.7-6.6s.6-4.6,1.7-6.6c.7-1.3,1.6-2.4,2.7-3.4-1.7-1.4-3.8-2.4-6.1-2.8ZM8.7,26.8c1.7,1.4,3.8,2.4,6.1,2.7V4.2c-2.3.4-4.4,1.3-6.1,2.7,1.1,1,2,2.1,2.7,3.4,1.1,2,1.7,4.3,1.7,6.6s-.6,4.6-1.7,6.6c-.7,1.3-1.6,2.4-2.7,3.4ZM6.1,9.9c-1.3,2-2.1,4.4-2.1,7s.8,5,2.1,7c.7-.7,1.4-1.5,1.9-2.4.8-1.4,1.2-3,1.2-4.6s-.4-3.2-1.2-4.6c-.5-.9-1.1-1.7-1.9-2.4ZM27.7,9.9c-.7.7-1.4,1.5-1.9,2.4-.8,1.4-1.2,3-1.2,4.6s.4,3.2,1.2,4.6c.5.9,1.1,1.7,1.9,2.4,1.3-2,2.1-4.4,2.1-7s-.8-5-2.1-7Z" fill="#1b0942" />
</svg>
